<svg width="300" height="255" viewBox="0 0 300 255" fill="none" xmlns="http://www.w3.org/2000/svg">
<path d="M289.501 106.533C274.498 125.718 246.189 130.112 222.766 123.43C215.101 121.19 207.708 118.112 200.718 114.251C196.658 112.046 192.695 109.628 188.814 107.051C187.858 106.42 186.903 105.779 185.958 105.125C185.314 104.684 184.672 104.239 184.032 103.787C176.016 98.1477 168.314 91.9608 160.741 85.8095C141.837 70.4539 122.415 54.6256 99.189 47.2991C94.404 45.7904 88.2138 45.0846 85.2547 49.138C82.6874 52.6572 84.2543 57.6397 86.4267 61.4147C94.4849 75.3976 109.112 84.2264 123.752 91.0155C138.392 97.8046 153.9 103.305 166.627 113.231C179.353 123.158 189.069 138.934 186.466 154.86C184.223 168.583 173.018 179.733 159.99 184.593C146.962 189.449 132.432 188.773 118.889 185.619C105.347 182.463 92.4906 176.956 79.4206 172.209C71.5405 169.344 61.2388 167.363 56.01 173.919C51.5942 179.458 54.1323 188.196 59.5098 192.807C64.8873 197.417 72.1654 198.961 79.1098 200.347C100.672 204.653 122.234 208.958 143.796 213.261C150.41 214.579 157.18 215.958 162.942 219.468C168.705 222.974 173.354 229.099 173.189 235.843C173.024 242.49 168.158 248.363 162.195 251.306C156.234 254.245 149.351 254.698 142.711 254.381C117.828 253.19 46.4885 213.656 29.3782 208.603C18.3835 205.359 6.36263 200.593 1.72639 190.11C-4.04615 177.059 5.45287 161.27 18.4191 155.31C31.3822 149.346 46.4108 150.667 60.5394 152.674C74.668 154.681 89.2627 157.236 103.016 153.422C116.769 149.608 129.369 137.176 128.013 122.97C126.831 110.609 115.697 101.295 103.98 97.1894C94.8087 93.9745 85.0507 93.1004 75.4159 91.6532C72.7416 91.255 70.0772 90.8082 67.4386 90.2579C60.6812 88.8421 54.0896 86.7263 47.7706 83.9447C41.1396 81.0319 34.84 77.4165 28.98 73.1605C24.306 69.7708 19.9381 65.9781 15.9263 61.8259C15.3144 61.1913 14.7089 60.5428 14.11 59.8801C13.5402 59.2456 12.9768 58.5981 12.4265 57.9376C5.26509 49.3808 -0.0251454 38.8427 1.56137 27.984C3.14441 17.1545 11.5848 8.13795 21.6341 3.80613C27.4422 1.30352 33.7068 0.183336 40.0491 0.0214599C44.6866 -0.0712236 49.3228 0.262568 53.8992 1.01862C75.0759 4.40508 94.4816 14.694 112.809 25.8343C131.134 36.9746 148.992 49.2028 168.912 57.1444C188.833 65.0893 211.509 68.4531 231.717 61.269C251.926 54.0882 268.528 34.4947 267.541 13.0719C280.944 24.6137 292.334 39.1211 297.378 56.0728C302.422 73.0245 300.395 92.5986 289.501 106.533Z" fill="#3F3D56"/>
</svg>
